<svg id="Layer_1" data-name="Layer 1" xmlns="http://www.w3.org/2000/svg" viewBox="0 0 300 160"><path id="path2998" d="M114.45,78.1H98.12v4.84H109.7c-.57,6.79-6.22,9.69-11.56,9.69a12.94,12.94,0,0,1,0-25.88,12.54,12.54,0,0,1,8.72,3.5l3.4-3.51A17.28,17.28,0,0,0,98,61.9a17.79,17.79,0,1,0,.26,35.58c9.53,0,16.5-6.52,16.5-16.17a14.86,14.86,0,0,0-.29-3.22Z"/><path id="path3000" d="M127.82,74.59A11.44,11.44,0,1,0,139.3,86.06c0-7.57-6-11.47-11.48-11.47Zm.06,4.49c3.3,0,6.42,2.66,6.42,7A6.62,6.62,0,0,1,127.87,93c-3.65,0-6.53-2.92-6.53-7a6.6,6.6,0,0,1,6.54-6.92Z"/><path id="path3005" d="M152.83,74.59A11.44,11.44,0,1,0,164.3,86.06c0-7.57-6-11.47-11.47-11.47Zm.06,4.49c3.3,0,6.42,2.66,6.42,7A6.62,6.62,0,0,1,152.88,93c-3.65,0-6.53-2.92-6.53-7a6.6,6.6,0,0,1,6.54-6.92Z"/><path id="path3007" d="M177.36,74.6c-6.15,0-11,5.38-11,11.43a11.29,11.29,0,0,0,10.88,11.45,7.56,7.56,0,0,0,6.27-2.78V97c0,4-2.39,6.31-6,6.31a6.35,6.35,0,0,1-5.86-4.07L167.26,101a11,11,0,0,0,10.29,6.74c6.11,0,10.77-3.85,10.77-11.93V75.29h-4.8v1.93a8.1,8.1,0,0,0-6.16-2.62Zm.44,4.48c3,0,6.11,2.58,6.11,7S180.82,93,177.73,93c-3.27,0-6.32-2.66-6.32-6.89,0-4.39,3.16-7,6.39-7Z"/><path id="path3011" d="M209.64,74.57C203.84,74.57,199,79.19,199,86A11.06,11.06,0,0,0,210.2,97.47a11.6,11.6,0,0,0,9.58-5l-3.95-2.63A6.41,6.41,0,0,1,210.22,93a5.89,5.89,0,0,1-5.61-3.47L220,83.14l-.8-1.87a10.35,10.35,0,0,0-9.51-6.7Zm.2,4.4a4.55,4.55,0,0,1,4.23,2.44L203.83,85.7c-.44-3.32,2.7-6.73,6-6.73Z"/><path id="path3015" d="M191.66,96.79h5V63.08h-5Z"/></svg>