<svg id="Layer_1" data-name="Layer 1" xmlns="http://www.w3.org/2000/svg" viewBox="0 0 300 160"><path d="M125.08,82.75l-1,2.87H124a18.51,18.51,0,0,0-1-2.81l-5.42-13.62h-5.3v21.7h3.51V77.5c0-.84,0-1.8,0-3,0-.59-.09-1-.11-1.37h.08a13.44,13.44,0,0,0,.5,1.85l6.52,15.84h2.47l6.46-16a16.48,16.48,0,0,0,.42-1.71h.08c-.08,1.6-.14,3-.16,3.9V90.81h3.73V69.13h-5.11Zm14.21-7.5h3.65V90.81h-3.65Zm1.85-6.57a2.19,2.19,0,0,0-1.54.62,2.07,2.07,0,0,0,0,3,2.16,2.16,0,0,0,1.54.59,2.29,2.29,0,0,0,1.55-.59,2,2,0,0,0,.64-1.49,2.15,2.15,0,0,0-2.19-2.14m14.74,6.43a10.13,10.13,0,0,0-2-.22A8.79,8.79,0,0,0,149.4,76a7.29,7.29,0,0,0-2.92,3,9.47,9.47,0,0,0-1,4.49,8.31,8.31,0,0,0,1,4,6.7,6.7,0,0,0,2.75,2.78,8.17,8.17,0,0,0,4,1,8.84,8.84,0,0,0,4.4-1l0,0V86.82l-.14.12a6.1,6.1,0,0,1-1.77.92,5.23,5.23,0,0,1-1.74.34,4.28,4.28,0,0,1-3.42-1.35,5.15,5.15,0,0,1-1.27-3.68,5.31,5.31,0,0,1,1.29-3.79A4.54,4.54,0,0,1,154,78a5.93,5.93,0,0,1,3.48,1.18l.14.11V75.7l0,0a8.06,8.06,0,0,0-1.74-.57M167.93,75a3.84,3.84,0,0,0-2.47.87A5.33,5.33,0,0,0,164.05,78h0V75.25h-3.65V90.81H164v-8a5.4,5.4,0,0,1,.89-3.28,2.83,2.83,0,0,1,2.36-1.26,8.27,8.27,0,0,1,1.1.14,2.91,2.91,0,0,1,.87.36l.14.11V75.28l-.09,0a2.84,2.84,0,0,0-1.37-.25m9.94-.08a8.07,8.07,0,0,0-6,2.24,8.38,8.38,0,0,0-2.16,6.13,8,8,0,0,0,2.13,5.81A8.79,8.79,0,0,0,183.43,89a8.35,8.35,0,0,0,2.16-6,8.11,8.11,0,0,0-2.05-5.87,7.4,7.4,0,0,0-5.67-2.13m2.92,12a3.69,3.69,0,0,1-3.06,1.29,3.84,3.84,0,0,1-3.15-1.35,5.58,5.58,0,0,1-1.12-3.73,5.9,5.9,0,0,1,1.12-3.82,3.87,3.87,0,0,1,3.12-1.35,3.73,3.73,0,0,1,3,1.29A5.77,5.77,0,0,1,181.86,83a6.54,6.54,0,0,1-1.07,3.88m12.94-5.17a8.29,8.29,0,0,1-2.21-1.15,1.56,1.56,0,0,1-.43-1.18,1.3,1.3,0,0,1,.59-1.12,2.71,2.71,0,0,1,1.6-.42,7.27,7.27,0,0,1,1.89.28,4.85,4.85,0,0,1,1.62.76l.14.11V75.56l-.08,0a9.76,9.76,0,0,0-1.66-.48,11.49,11.49,0,0,0-1.79-.17,6.5,6.5,0,0,0-4.3,1.35,4.16,4.16,0,0,0-1.66,3.42,4.49,4.49,0,0,0,.37,1.91A4.21,4.21,0,0,0,188.93,83a10,10,0,0,0,2.25,1.27,19.59,19.59,0,0,1,1.88.87,3.5,3.5,0,0,1,.84.67,1.62,1.62,0,0,1,.23.87c0,1-.79,1.55-2.39,1.55a6.38,6.38,0,0,1-2-.37,7.75,7.75,0,0,1-2.05-1l-.14-.11v3.57l.08,0a10.7,10.7,0,0,0,2,.62,12.5,12.5,0,0,0,2.1.25,6.86,6.86,0,0,0,4.52-1.34,4.29,4.29,0,0,0,1.72-3.54,3.93,3.93,0,0,0-.9-2.67,11.55,11.55,0,0,0-3.29-1.94m13.82-6.79a8.07,8.07,0,0,0-6,2.24,8.5,8.5,0,0,0-2.16,6.13,8,8,0,0,0,2.13,5.81A8.79,8.79,0,0,0,213.11,89a8.35,8.35,0,0,0,2.16-6,8.11,8.11,0,0,0-2.05-5.87,7.4,7.4,0,0,0-5.67-2.13m2.89,12a3.67,3.67,0,0,1-3.06,1.29,3.77,3.77,0,0,1-3.14-1.35,5.53,5.53,0,0,1-1.13-3.73,5.84,5.84,0,0,1,1.13-3.82,3.83,3.83,0,0,1,3.11-1.35,3.76,3.76,0,0,1,3,1.29A5.77,5.77,0,0,1,211.51,83a6.14,6.14,0,0,1-1.07,3.88"/><path d="M234.79,78.26v-3h-3.68v-4.6l-.12,0-3.48,1-.08,0v3.51h-5.51v-2a3.1,3.1,0,0,1,.62-2.05,2.2,2.2,0,0,1,1.72-.67,4.11,4.11,0,0,1,1.62.36L226,71V67.84l-.08,0a6.82,6.82,0,0,0-2.05-.28,6.61,6.61,0,0,0-2.92.68,4.77,4.77,0,0,0-2,2,5.72,5.72,0,0,0-.73,2.89v2.16h-2.56v3h2.56V90.81h3.67V78.26h5.51v8q0,4.93,4.63,4.94a10.19,10.19,0,0,0,1.55-.16,5.73,5.73,0,0,0,1.15-.37l0,0v-3l-.15.11a2.49,2.49,0,0,1-.75.34,2.75,2.75,0,0,1-.73.11,1.94,1.94,0,0,1-1.6-.59,3,3,0,0,1-.51-2V78.26Z"/><path d="M65.21,61.89H82.43V79.1H65.21Z"/><path d="M84.22,61.89h17.22V79.1H84.22Z"/><path d="M65.21,80.9H82.43V98.11H65.21Z"/><path d="M84.22,80.9h17.22V98.11H84.22Z"/></svg>