<svg id="Layer_1" data-name="Layer 1" xmlns="http://www.w3.org/2000/svg" viewBox="0 0 300 160"><g id="layer1"><g id="g3235"><path id="path3015" d="M196.06,95.42l5.43.56,4-9.86,3.79,10.77q2.92.36,5.84.77l-6.66-18.89,6.66-16.44h-5.64l0,.08-3.6,8.88-3.16-9h-5.56l5.74,16.31Z"/><path id="path3019" d="M191.85,95V62.33h-5.57V94.58q2.79.21,5.57.45"/><path id="path3023" d="M150.05,93.21l4.5,0v-12h6.68V76.1h-6.68V67.45h7.7V62.33H149V93.21h1.09"/><path id="path3035" d="M132.77,93.52c1.86-.07,3.71-.12,5.57-.17V67.46h5.2V62.33h-16v5.13h5.2V93.52Z"/><path id="path3039" d="M90.22,97V77.48l6.58,18.7q3-.34,6.09-.64V62.33H97.56V82.51L90.45,62.33H84.88V97.67h0c1.77-.25,3.53-.48,5.31-.7"/><path id="path3051" d="M122.21,67.45V62.33H108.92V95h0q6.61-.57,13.27-1h0V88.9c-2.56.15-5.13.32-7.68.51V81.22h6.68V76.1h-6.68V67.45Z"/><path id="path3055" d="M173.28,88.65V62.33h-5.59v31.2h0q6.66.24,13.29.67h0V89.09c-2.57-.17-5.13-.31-7.7-.44"/></g></g></svg>